<?xml version="1.0" standalone="no"?>
<!DOCTYPE svg PUBLIC "-//W3C//DTD SVG 20010904//EN"
 "http://www.w3.org/TR/2001/REC-SVG-20010904/DTD/svg10.dtd">
<svg version="1.0" xmlns="http://www.w3.org/2000/svg" width="165.2500000pt" height="109.500000pt" viewBox="0 0 661.000000 438.000000" preserveAspectRatio="xMidYMid meet">

<g transform="translate(0.000000,438.000000) scale(0.100000,-0.100000)"
fill="#000000" stroke="none">
<path d="M2735 3026 c-22 -33 -18 -231 5 -231 12 0 16 21 20 110 l5 110 355 0
355 0 5 -54 c3 -31 10 -56 18 -59 16 -5 17 119 0 136 -9 9 -107 12 -380 12
l-368 0 -15 -24z"/>
<path d="M3594 2887 c-2 -7 -3 -104 -2 -216 2 -151 6 -205 15 -208 10 -4 13
43 15 199 l3 203 111 3 c92 2 115 0 128 -13 35 -35 21 -45 -64 -45 l-80 0 0
-69 0 -70 88 -26 c48 -14 105 -32 127 -39 l40 -13 0 -64 c0 -62 -1 -64 -27
-67 -39 -5 -37 -32 3 -32 30 0 30 -1 27 -47 l-3 -48 -69 -5 c-43 -3 -71 -10
-74 -17 -5 -18 149 -18 166 -1 8 8 12 58 12 159 l0 147 -59 132 c-32 73 -65
136 -72 141 -23 15 -279 11 -285 -4z m337 -173 c16 -37 27 -69 24 -72 -3 -3
-48 8 -100 24 l-95 29 0 43 0 42 70 0 71 0 30 -66z"/>
<path d="M2607 2683 c-20 -19 7 -23 158 -23 140 0 165 2 165 15 0 13 -24 15
-158 15 -87 0 -162 -3 -165 -7z"/>
<path d="M2723 2538 c3 -10 44 -13 162 -13 118 0 159 3 163 13 3 9 -34 12
-163 12 -129 0 -166 -3 -162 -12z"/>
<path d="M2803 2395 c-67 -29 -81 -120 -27 -177 23 -23 36 -28 73 -28 49 1 67
10 94 50 35 51 10 131 -48 156 -42 17 -51 17 -92 -1z m94 -40 c56 -39 23 -134
-47 -134 -69 0 -99 94 -43 137 23 16 64 15 90 -3z"/>
<path d="M3053 2394 c-100 -50 -63 -204 49 -204 50 0 74 13 93 50 33 64 11
130 -51 156 -42 18 -51 17 -91 -2z m100 -42 c30 -33 31 -74 3 -105 -31 -33
-71 -35 -103 -5 -29 27 -31 80 -3 108 25 25 81 26 103 2z"/>
<path d="M3635 2400 c-55 -22 -84 -89 -61 -144 18 -44 51 -66 99 -66 49 0 73
13 92 50 33 64 11 130 -51 156 -37 16 -50 16 -79 4z m94 -56 c28 -35 26 -69
-4 -99 -68 -69 -170 31 -103 102 30 33 80 31 107 -3z"/>
<path d="M3262 2298 c3 -9 40 -14 126 -16 104 -2 122 0 122 13 0 13 -20 15
-126 15 -96 0 -125 -3 -122 -12z"/>
<path d="M2360 1735 l0 -225 30 0 30 0 0 105 c0 118 13 145 69 145 49 0 61
-29 61 -147 l0 -103 31 0 31 0 -3 120 c-4 114 -5 121 -31 146 -34 34 -104 39
-137 10 l-21 -19 0 96 0 97 -30 0 -30 0 0 -225z"/>
<path d="M5030 1735 l0 -225 30 0 30 0 0 103 c0 90 3 106 20 125 25 27 71 29
93 4 14 -15 17 -40 17 -125 l0 -107 30 0 30 0 0 105 c0 136 -13 169 -71 186
-38 12 -46 11 -80 -8 l-39 -21 0 94 0 94 -30 0 -30 0 0 -225z"/>
<path d="M1831 1921 c-13 -24 8 -55 34 -50 28 6 42 34 26 53 -18 22 -48 20
-60 -3z"/>
<path d="M3349 1924 c-17 -21 0 -49 32 -49 18 0 25 6 27 24 6 38 -34 55 -59
25z"/>
<path d="M1320 1720 l0 -210 30 0 30 0 0 90 0 90 75 0 c73 0 75 1 75 25 0 24
-2 25 -75 25 l-75 0 0 70 0 70 85 0 c84 0 85 0 85 25 l0 25 -115 0 -115 0 0
-210z"/>
<path d="M2930 1721 l0 -211 93 0 c115 0 163 20 204 81 25 38 28 51 28 123 0
152 -58 206 -227 214 l-98 5 0 -212z m207 134 c59 -39 80 -139 45 -219 -25
-55 -64 -76 -142 -76 l-50 0 0 161 0 162 62 -7 c34 -3 72 -13 85 -21z"/>
<path d="M2720 1862 c0 -41 -14 -62 -42 -62 -11 0 -18 -7 -18 -20 0 -16 7 -20
30 -20 l30 0 0 -99 c0 -84 3 -102 21 -125 16 -20 29 -26 60 -26 32 0 39 3 39
20 0 13 -7 20 -18 20 -34 0 -42 21 -42 117 l0 93 30 0 c23 0 30 4 30 20 0 16
-7 20 -30 20 -29 0 -30 1 -30 50 0 49 -1 50 -30 50 -28 0 -30 -2 -30 -38z"/>
<path d="M4510 1866 c0 -38 -21 -66 -51 -66 -12 0 -19 -7 -19 -20 0 -15 7 -20
29 -20 l29 0 4 -104 c4 -126 16 -146 85 -146 36 0 43 3 43 20 0 14 -7 20 -23
20 -40 0 -47 18 -47 117 l0 93 35 0 c28 0 35 4 35 20 0 16 -7 20 -35 20 l-35
0 0 50 c0 47 -2 50 -25 50 -22 0 -25 -4 -25 -34z"/>
<path d="M2070 1804 c-76 -27 -104 -71 -98 -155 4 -50 9 -65 35 -91 41 -41
107 -49 158 -20 l35 21 0 -34 c0 -50 -16 -82 -47 -98 -40 -21 -88 -10 -118 25
-21 24 -28 27 -45 18 -15 -8 -18 -15 -11 -28 49 -91 192 -95 255 -9 19 26 21
45 25 198 l3 169 -31 0 c-24 0 -31 -4 -31 -20 l0 -21 -27 21 c-30 21 -78 33
-103 24z m99 -70 c26 -22 31 -33 31 -70 0 -60 -32 -94 -89 -94 -32 0 -44 6
-66 32 -23 27 -26 39 -22 72 11 79 87 110 146 60z"/>
<path d="M3553 1803 c-28 -6 -63 -49 -63 -78 0 -34 37 -73 74 -81 43 -8 96
-40 96 -58 0 -42 -82 -52 -115 -13 -24 28 -58 25 -53 -5 9 -60 142 -86 193
-38 29 27 33 74 10 108 -9 13 -39 28 -70 38 -53 15 -85 36 -85 54 0 13 42 40
63 40 10 0 28 -11 41 -25 24 -25 56 -26 56 -1 0 39 -84 73 -147 59z"/>
<path d="M3910 1803 c-8 -3 -25 -15 -37 -26 l-23 -20 0 21 c0 18 -6 22 -30 22
l-30 0 0 -220 0 -220 30 0 30 0 0 97 0 96 26 -24 c30 -28 95 -33 138 -10 84
45 91 213 11 265 -26 17 -92 28 -115 19z m64 -53 c74 -28 72 -159 -3 -190 -83
-34 -157 57 -116 143 24 50 66 67 119 47z"/>
<path d="M4220 1800 c-35 -8 -70 -41 -70 -65 0 -21 49 -25 55 -5 3 10 18 23
34 29 50 21 112 -27 81 -64 -6 -7 -33 -16 -59 -20 -99 -13 -147 -76 -104 -134
30 -40 82 -49 133 -22 37 19 43 20 56 6 20 -20 74 -20 74 0 0 8 -9 19 -20 25
-18 9 -20 21 -20 95 0 104 -10 132 -55 150 -38 16 -53 17 -105 5z m105 -189
c-11 -51 -81 -81 -113 -49 -15 15 -15 45 0 54 14 9 111 32 116 28 2 -1 1 -16
-3 -33z"/>
<path d="M4775 1800 c-130 -39 -128 -248 2 -291 59 -19 148 15 171 66 10 22 9
25 -13 31 -19 5 -30 -1 -51 -25 -47 -56 -136 -30 -150 44 -20 108 76 176 148
105 22 -23 35 -29 53 -24 23 6 24 7 10 35 -26 49 -108 77 -170 59z"/>
<path d="M1620 1655 l0 -145 30 0 30 0 0 95 c0 88 2 98 25 120 13 14 33 25 45
25 15 0 20 6 20 25 0 32 -27 33 -64 4 l-26 -20 0 20 c0 17 -6 21 -30 21 l-30
0 0 -145z"/>
<path d="M1830 1655 l0 -145 30 0 30 0 0 145 0 145 -30 0 -30 0 0 -145z"/>
<path d="M3350 1655 l0 -145 30 0 30 0 0 145 0 145 -30 0 -30 0 0 -145z"/>
</g>
</svg>
